# xmcd CD database file
#
# Track frame offsets:
#	150
#	7200
#	26821
#	42641
#	62713
#	82236
#	92751
#	114801
#	134152
#	156727
#
# Disc length: 2351 seconds
#
# Revision: 0
# Processed by: cddbd v1.5.1PL0 Copyright (c) Steve Scherf et al.
# Submitted via: CDex 1.51
#
DISCID=94092d0a
DTITLE=POR - タリス
DYEAR=1900
DGENRE=Rock
TTITLE0=ペンタグラム
TTITLE1=タリス
TTITLE2=冬のシャボン玉
TTITLE3=コンプレッサー
TTITLE4=蒼のビジョン
TTITLE5=フラクタル
TTITLE6=CO
TTITLE7=つばくらめの旋律
TTITLE8=陽だまり
TTITLE9=カレント
EXTD=
EXTT0=
EXTT1=
EXTT2=
EXTT3=
EXTT4=
EXTT5=
EXTT6=
EXTT7=
EXTT8=
EXTT9=
PLAYORDER=
